<?xml version="1.0" encoding="UTF-8" standalone="no"?><svg xmlns="http://www.w3.org/2000/svg" xmlns:xlink="http://www.w3.org/1999/xlink" contentScriptType="application/ecmascript" contentStyleType="text/css" height="602px" preserveAspectRatio="none" style="width:670px;height:602px;" version="1.1" viewBox="0 0 670 602" width="670px" zoomAndPan="magnify"><defs><filter height="300%" id="fwvwp6ds28wgz" width="300%" x="-1" y="-1"><feGaussianBlur result="blurOut" stdDeviation="2.0"/><feColorMatrix in="blurOut" result="blurOut2" type="matrix" values="0 0 0 0 0 0 0 0 0 0 0 0 0 0 0 0 0 0 .4 0"/><feOffset dx="4.0" dy="4.0" in="blurOut2" result="blurOut3"/><feBlend in="SourceGraphic" in2="blurOut3" mode="normal"/></filter></defs><g><!--cluster com.company.model--><polygon fill="#FFFFFF" filter="url(#fwvwp6ds28wgz)" points="8,11,156,11,163,34.6094,648,34.6094,648,590,8,590,8,11" style="stroke: #000000; stroke-width: 1.5;"/><line style="stroke: #000000; stroke-width: 1.5;" x1="8" x2="163" y1="34.6094" y2="34.6094"/><text fill="#000000" font-family="sans-serif" font-size="14" font-weight="bold" lengthAdjust="spacingAndGlyphs" textLength="142" x="12" y="27.5332">com.company.model</text><!--class cardOrder--><rect fill="#FEFECE" filter="url(#fwvwp6ds28wgz)" height="103.3438" id="cardOrder" style="stroke: #A80036; stroke-width: 1.5;" width="124" x="16" y="182.5"/><ellipse cx="47.65" cy="198.5" fill="#ADD1B2" rx="11" ry="11" style="stroke: #A80036; stroke-width: 1.0;"/><path d="M50.4156,194.375 Q50.5719,194.1563 50.7594,194.0469 Q50.9469,193.9375 51.1656,193.9375 Q51.5406,193.9375 51.775,194.1953 Q52.0094,194.4531 52.0094,195.0625 L52.0094,196.5156 Q52.0094,197.125 51.775,197.3906 Q51.5406,197.6563 51.1656,197.6563 Q50.8219,197.6563 50.6188,197.4531 Q50.4156,197.2656 50.3063,196.75 Q50.2594,196.3906 50.0719,196.2031 Q49.7438,195.8281 49.1344,195.6094 Q48.525,195.3906 47.9,195.3906 Q47.1344,195.3906 46.5016,195.7188 Q45.8688,196.0469 45.3766,196.7969 Q44.8844,197.5469 44.8844,198.5781 L44.8844,199.6719 Q44.8844,200.9063 45.775,201.7266 Q46.6656,202.5469 48.2594,202.5469 Q49.1969,202.5469 49.8531,202.2969 Q50.2438,202.1406 50.6656,201.7031 Q50.9313,201.4375 51.0797,201.3594 Q51.2281,201.2813 51.4313,201.2813 Q51.7594,201.2813 52.0172,201.5391 Q52.275,201.7969 52.275,202.1406 Q52.275,202.4844 51.9313,202.8906 Q51.4313,203.4688 50.6344,203.7969 Q49.5563,204.25 48.2594,204.25 Q46.7438,204.25 45.5406,203.625 Q44.5563,203.125 43.8688,202.0547 Q43.1813,200.9844 43.1813,199.7031 L43.1813,198.5469 Q43.1813,197.2188 43.7984,196.0703 Q44.4156,194.9219 45.5094,194.3047 Q46.6031,193.6875 47.8375,193.6875 Q48.5719,193.6875 49.2203,193.8516 Q49.8688,194.0156 50.4156,194.375 Z "/><text fill="#000000" font-family="sans-serif" font-size="12" lengthAdjust="spacingAndGlyphs" textLength="55" x="65.35" y="203.4102">cardOrder</text><line style="stroke: #A80036; stroke-width: 1.5;" x1="17" x2="139" y1="214.5" y2="214.5"/><ellipse cx="27" cy="226.918" fill="none" rx="3" ry="3" style="stroke: #038048; stroke-width: 1.0;"/><text fill="#000000" font-family="sans-serif" font-size="11" lengthAdjust="spacingAndGlyphs" textLength="98" x="36" y="229.9189">persistenceId : Long</text><ellipse cx="27" cy="240.7539" fill="none" rx="3" ry="3" style="stroke: #038048; stroke-width: 1.0;"/><text fill="#000000" font-family="sans-serif" font-size="11" lengthAdjust="spacingAndGlyphs" textLength="73" x="36" y="243.7549">itemRef : String</text><ellipse cx="27" cy="254.5898" fill="none" rx="3" ry="3" style="stroke: #038048; stroke-width: 1.0;"/><text fill="#000000" font-family="sans-serif" font-size="11" lengthAdjust="spacingAndGlyphs" textLength="97" x="36" y="257.5908">qtyToOrder : Integer</text><ellipse cx="27" cy="268.4258" fill="none" rx="3" ry="3" style="stroke: #038048; stroke-width: 1.0;"/><text fill="#000000" font-family="sans-serif" font-size="11" lengthAdjust="spacingAndGlyphs" textLength="94" x="36" y="271.4268">orderStatus : String</text><line style="stroke: #A80036; stroke-width: 1.5;" x1="17" x2="139" y1="277.8438" y2="277.8438"/><!--class itemChangeRequestv2--><rect fill="#FEFECE" filter="url(#fwvwp6ds28wgz)" height="389.8984" id="itemChangeRequestv2" style="stroke: #A80036; stroke-width: 1.5;" width="482" x="158" y="39"/><ellipse cx="331.25" cy="55" fill="#ADD1B2" rx="11" ry="11" style="stroke: #A80036; stroke-width: 1.0;"/><path d="M334.0156,50.875 Q334.1719,50.6563 334.3594,50.5469 Q334.5469,50.4375 334.7656,50.4375 Q335.1406,50.4375 335.375,50.6953 Q335.6094,50.9531 335.6094,51.5625 L335.6094,53.0156 Q335.6094,53.625 335.375,53.8906 Q335.1406,54.1563 334.7656,54.1563 Q334.4219,54.1563 334.2188,53.9531 Q334.0156,53.7656 333.9063,53.25 Q333.8594,52.8906 333.6719,52.7031 Q333.3438,52.3281 332.7344,52.1094 Q332.125,51.8906 331.5,51.8906 Q330.7344,51.8906 330.1016,52.2188 Q329.4688,52.5469 328.9766,53.2969 Q328.4844,54.0469 328.4844,55.0781 L328.4844,56.1719 Q328.4844,57.4063 329.375,58.2266 Q330.2656,59.0469 331.8594,59.0469 Q332.7969,59.0469 333.4531,58.7969 Q333.8438,58.6406 334.2656,58.2031 Q334.5313,57.9375 334.6797,57.8594 Q334.8281,57.7813 335.0313,57.7813 Q335.3594,57.7813 335.6172,58.0391 Q335.875,58.2969 335.875,58.6406 Q335.875,58.9844 335.5313,59.3906 Q335.0313,59.9688 334.2344,60.2969 Q333.1563,60.75 331.8594,60.75 Q330.3438,60.75 329.1406,60.125 Q328.1563,59.625 327.4688,58.5547 Q326.7813,57.4844 326.7813,56.2031 L326.7813,55.0469 Q326.7813,53.7188 327.3984,52.5703 Q328.0156,51.4219 329.1094,50.8047 Q330.2031,50.1875 331.4375,50.1875 Q332.1719,50.1875 332.8203,50.3516 Q333.4688,50.5156 334.0156,50.875 Z "/><text fill="#000000" font-family="sans-serif" font-size="12" lengthAdjust="spacingAndGlyphs" textLength="127" x="351.75" y="59.9102">itemChangeRequestv2</text><line style="stroke: #A80036; stroke-width: 1.5;" x1="159" x2="639" y1="71" y2="71"/><ellipse cx="169" cy="83.418" fill="none" rx="3" ry="3" style="stroke: #038048; stroke-width: 1.0;"/><text fill="#000000" font-family="sans-serif" font-size="11" lengthAdjust="spacingAndGlyphs" textLength="98" x="178" y="86.4189">persistenceId : Long</text><ellipse cx="169" cy="97.2539" fill="none" rx="3" ry="3" style="stroke: #038048; stroke-width: 1.0;"/><text fill="#000000" font-family="sans-serif" font-size="11" lengthAdjust="spacingAndGlyphs" textLength="63" x="178" y="100.2549">userId : Long</text><ellipse cx="169" cy="111.0898" fill="none" rx="3" ry="3" style="stroke: #038048; stroke-width: 1.0;"/><text fill="#000000" font-family="sans-serif" font-size="11" lengthAdjust="spacingAndGlyphs" textLength="136" x="178" y="114.0908">customerRequesting : String</text><ellipse cx="169" cy="124.9258" fill="none" rx="3" ry="3" style="stroke: #038048; stroke-width: 1.0;"/><text fill="#000000" font-family="sans-serif" font-size="11" lengthAdjust="spacingAndGlyphs" textLength="78" x="178" y="127.9268">oldItemId : String</text><ellipse cx="169" cy="138.7617" fill="none" rx="3" ry="3" style="stroke: #038048; stroke-width: 1.0;"/><text fill="#000000" font-family="sans-serif" font-size="11" lengthAdjust="spacingAndGlyphs" textLength="86" x="178" y="141.7627">newItemId : String</text><ellipse cx="169" cy="152.5977" fill="none" rx="3" ry="3" style="stroke: #038048; stroke-width: 1.0;"/><text fill="#000000" font-family="sans-serif" font-size="11" lengthAdjust="spacingAndGlyphs" textLength="146" x="178" y="155.5986">targetDeliveryDate : LocalDate</text><ellipse cx="169" cy="166.4336" fill="none" rx="3" ry="3" style="stroke: #038048; stroke-width: 1.0;"/><text fill="#000000" font-family="sans-serif" font-size="11" lengthAdjust="spacingAndGlyphs" textLength="70" x="178" y="169.4346">priority : String</text><ellipse cx="169" cy="180.2695" fill="none" rx="3" ry="3" style="stroke: #038048; stroke-width: 1.0;"/><text fill="#000000" font-family="sans-serif" font-size="11" lengthAdjust="spacingAndGlyphs" textLength="67" x="178" y="183.2705">status : String</text><ellipse cx="169" cy="194.1055" fill="none" rx="3" ry="3" style="stroke: #038048; stroke-width: 1.0;"/><text fill="#000000" font-family="sans-serif" font-size="11" lengthAdjust="spacingAndGlyphs" textLength="139" x="178" y="197.1064">customerJustification : String</text><ellipse cx="169" cy="207.9414" fill="none" rx="3" ry="3" style="stroke: #038048; stroke-width: 1.0;"/><text fill="#000000" font-family="sans-serif" font-size="11" lengthAdjust="spacingAndGlyphs" textLength="124" x="178" y="210.9424">feasibilityResultPP : String</text><ellipse cx="169" cy="221.7773" fill="none" rx="3" ry="3" style="stroke: #038048; stroke-width: 1.0;"/><text fill="#000000" font-family="sans-serif" font-size="11" lengthAdjust="spacingAndGlyphs" textLength="134" x="178" y="224.7783">feasibilityResultProd : String</text><ellipse cx="169" cy="235.6133" fill="none" rx="3" ry="3" style="stroke: #038048; stroke-width: 1.0;"/><text fill="#000000" font-family="sans-serif" font-size="11" lengthAdjust="spacingAndGlyphs" textLength="161" x="178" y="238.6143">feasibilityRejectReasonPP : String</text><ellipse cx="169" cy="249.4492" fill="none" rx="3" ry="3" style="stroke: #038048; stroke-width: 1.0;"/><text fill="#000000" font-family="sans-serif" font-size="11" lengthAdjust="spacingAndGlyphs" textLength="171" x="178" y="252.4502">feasibilityRejectReasonProd : String</text><ellipse cx="169" cy="263.2852" fill="none" rx="3" ry="3" style="stroke: #038048; stroke-width: 1.0;"/><text fill="#000000" font-family="sans-serif" font-size="11" lengthAdjust="spacingAndGlyphs" textLength="104" x="178" y="266.2861">dryTestResult : String</text><ellipse cx="169" cy="277.1211" fill="none" rx="3" ry="3" style="stroke: #038048; stroke-width: 1.0;"/><text fill="#000000" font-family="sans-serif" font-size="11" lengthAdjust="spacingAndGlyphs" textLength="129" x="178" y="280.1221">customerValidation : String</text><ellipse cx="169" cy="290.957" fill="none" rx="3" ry="3" style="stroke: #038048; stroke-width: 1.0;"/><text fill="#000000" font-family="sans-serif" font-size="11" lengthAdjust="spacingAndGlyphs" textLength="91" x="178" y="293.958">goLiveDate : String</text><ellipse cx="169" cy="304.793" fill="none" rx="3" ry="3" style="stroke: #038048; stroke-width: 1.0;"/><text fill="#000000" font-family="sans-serif" font-size="11" lengthAdjust="spacingAndGlyphs" textLength="94" x="178" y="307.7939">stockStatus : String</text><ellipse cx="169" cy="318.6289" fill="none" rx="3" ry="3" style="stroke: #038048; stroke-width: 1.0;"/><text fill="#000000" font-family="sans-serif" font-size="11" lengthAdjust="spacingAndGlyphs" textLength="95" x="178" y="321.6299">changeCost : String</text><ellipse cx="169" cy="332.4648" fill="none" rx="3" ry="3" style="stroke: #038048; stroke-width: 1.0;"/><text fill="#000000" font-family="sans-serif" font-size="11" lengthAdjust="spacingAndGlyphs" textLength="62" x="178" y="335.4658">items : String</text><ellipse cx="169" cy="346.3008" fill="none" rx="3" ry="3" style="stroke: #038048; stroke-width: 1.0;"/><text fill="#000000" font-family="sans-serif" font-size="11" lengthAdjust="spacingAndGlyphs" textLength="97" x="178" y="349.3018">qtyToOrder : Integer</text><ellipse cx="169" cy="360.1367" fill="none" rx="3" ry="3" style="stroke: #038048; stroke-width: 1.0;"/><text fill="#000000" font-family="sans-serif" font-size="11" lengthAdjust="spacingAndGlyphs" textLength="71" x="178" y="363.1377">Owner : String</text><ellipse cx="169" cy="373.9727" fill="none" rx="3" ry="3" style="stroke: #038048; stroke-width: 1.0;"/><text fill="#000000" font-family="sans-serif" font-size="11" lengthAdjust="spacingAndGlyphs" textLength="66" x="178" y="376.9736">caseID : Long</text><ellipse cx="169" cy="405.6445" fill="#84BE84" rx="3" ry="3" style="stroke: #038048; stroke-width: 1.0;"/><text fill="#000000" font-family="sans-serif" font-size="11" lengthAdjust="spacingAndGlyphs" textLength="352" x="178" y="408.6455">getListForAll(int startIndex, int maxResults) : List&lt;itemChangeRequestv2&gt;</text><ellipse cx="169" cy="419.4805" fill="#84BE84" rx="3" ry="3" style="stroke: #038048; stroke-width: 1.0;"/><text fill="#000000" font-family="sans-serif" font-size="11" lengthAdjust="spacingAndGlyphs" textLength="456" x="178" y="422.4814">getAllPendingByUser(Long userId, int startIndex, int maxResults) : List&lt;itemChangeRequestv2&gt;</text><line style="stroke: #A80036; stroke-width: 1.0;" x1="159" x2="361.5" y1="390.3086" y2="390.3086"/><line style="stroke: #A80036; stroke-width: 1.0;" x1="159" x2="361.5" y1="392.3086" y2="392.3086"/><text fill="#000000" font-family="sans-serif" font-size="11" lengthAdjust="spacingAndGlyphs" textLength="75" x="361.5" y="394.3096">Custom queries</text><line style="stroke: #A80036; stroke-width: 1.0;" x1="436.5" x2="639" y1="390.3086" y2="390.3086"/><line style="stroke: #A80036; stroke-width: 1.0;" x1="436.5" x2="639" y1="392.3086" y2="392.3086"/><!--class purchaseOrder--><rect fill="#FEFECE" filter="url(#fwvwp6ds28wgz)" height="117.1797" id="purchaseOrder" style="stroke: #A80036; stroke-width: 1.5;" width="124" x="16" y="465"/><ellipse cx="35.05" cy="481" fill="#ADD1B2" rx="11" ry="11" style="stroke: #A80036; stroke-width: 1.0;"/><path d="M37.8156,476.875 Q37.9719,476.6563 38.1594,476.5469 Q38.3469,476.4375 38.5656,476.4375 Q38.9406,476.4375 39.175,476.6953 Q39.4094,476.9531 39.4094,477.5625 L39.4094,479.0156 Q39.4094,479.625 39.175,479.8906 Q38.9406,480.1563 38.5656,480.1563 Q38.2219,480.1563 38.0188,479.9531 Q37.8156,479.7656 37.7063,479.25 Q37.6594,478.8906 37.4719,478.7031 Q37.1438,478.3281 36.5344,478.1094 Q35.925,477.8906 35.3,477.8906 Q34.5344,477.8906 33.9016,478.2188 Q33.2688,478.5469 32.7766,479.2969 Q32.2844,480.0469 32.2844,481.0781 L32.2844,482.1719 Q32.2844,483.4063 33.175,484.2266 Q34.0656,485.0469 35.6594,485.0469 Q36.5969,485.0469 37.2531,484.7969 Q37.6438,484.6406 38.0656,484.2031 Q38.3313,483.9375 38.4797,483.8594 Q38.6281,483.7813 38.8313,483.7813 Q39.1594,483.7813 39.4172,484.0391 Q39.675,484.2969 39.675,484.6406 Q39.675,484.9844 39.3313,485.3906 Q38.8313,485.9688 38.0344,486.2969 Q36.9563,486.75 35.6594,486.75 Q34.1438,486.75 32.9406,486.125 Q31.9562,485.625 31.2687,484.5547 Q30.5812,483.4844 30.5812,482.2031 L30.5812,481.0469 Q30.5812,479.7188 31.1984,478.5703 Q31.8156,477.4219 32.9094,476.8047 Q34.0031,476.1875 35.2375,476.1875 Q35.9719,476.1875 36.6203,476.3516 Q37.2688,476.5156 37.8156,476.875 Z "/><text fill="#000000" font-family="sans-serif" font-size="12" lengthAdjust="spacingAndGlyphs" textLength="83" x="49.95" y="485.9102">purchaseOrder</text><line style="stroke: #A80036; stroke-width: 1.5;" x1="17" x2="139" y1="497" y2="497"/><ellipse cx="27" cy="509.418" fill="none" rx="3" ry="3" style="stroke: #038048; stroke-width: 1.0;"/><text fill="#000000" font-family="sans-serif" font-size="11" lengthAdjust="spacingAndGlyphs" textLength="98" x="36" y="512.4189">persistenceId : Long</text><ellipse cx="27" cy="523.2539" fill="none" rx="3" ry="3" style="stroke: #038048; stroke-width: 1.0;"/><text fill="#000000" font-family="sans-serif" font-size="11" lengthAdjust="spacingAndGlyphs" textLength="73" x="36" y="526.2549">itemRef : String</text><ellipse cx="27" cy="537.0898" fill="none" rx="3" ry="3" style="stroke: #038048; stroke-width: 1.0;"/><text fill="#000000" font-family="sans-serif" font-size="11" lengthAdjust="spacingAndGlyphs" textLength="57" x="36" y="540.0908">qty : Integer</text><ellipse cx="27" cy="550.9258" fill="none" rx="3" ry="3" style="stroke: #038048; stroke-width: 1.0;"/><text fill="#000000" font-family="sans-serif" font-size="11" lengthAdjust="spacingAndGlyphs" textLength="56" x="36" y="553.9268">price : Float</text><ellipse cx="27" cy="564.7617" fill="none" rx="3" ry="3" style="stroke: #038048; stroke-width: 1.0;"/><text fill="#000000" font-family="sans-serif" font-size="11" lengthAdjust="spacingAndGlyphs" textLength="94" x="36" y="567.7627">orderStatus : String</text><line style="stroke: #A80036; stroke-width: 1.5;" x1="17" x2="139" y1="574.1797" y2="574.1797"/><path d="M140.0684,234 C145.9685,234 151.8686,234 157.7688,234 " fill="none" style="stroke: #A80036; stroke-width: 1.0;"/><path d="M78,285.7374 C78,335.8713 78,412.4566 78,464.8615 " fill="none" style="stroke: #A80036; stroke-width: 1.0;"/><!--
@startuml
!pragma graphviz_dot jdot

package com.company.model {

    class cardOrder {
        +persistenceId : Long
        +itemRef : String
        +qtyToOrder : Integer
        +orderStatus : String
    }

    class itemChangeRequestv2 {
        +persistenceId : Long
        +userId : Long
        +customerRequesting : String
        +oldItemId : String
        +newItemId : String
        +targetDeliveryDate : LocalDate
        +priority : String
        +status : String
        +customerJustification : String
        +feasibilityResultPP : String
        +feasibilityResultProd : String
        +feasibilityRejectReasonPP : String
        +feasibilityRejectReasonProd : String
        +dryTestResult : String
        +customerValidation : String
        +goLiveDate : String
        +stockStatus : String
        +changeCost : String
        +items : String
        +qtyToOrder : Integer
        +Owner : String
        +caseID : Long
        == Custom queries ==
        +getListForAll(int startIndex, int maxResults) : List<itemChangeRequestv2>
        +getAllPendingByUser(Long userId, int startIndex, int maxResults) : List<itemChangeRequestv2>
    }

    class purchaseOrder {
        +persistenceId : Long
        +itemRef : String
        +qty : Integer
        +price : Float
        +orderStatus : String
    }


}

@enduml

PlantUML version 1.2019.00(Sun Jan 13 16:46:42 CET 2019)
(EPL source distribution)
Java Runtime: Java(TM) SE Runtime Environment
JVM: Java HotSpot(TM) 64-Bit Server VM
Java Version: 1.8.0_231-b11
Operating System: Windows 10
OS Version: 10.0
Default Encoding: UTF8
Language: fr
Country: FR
--></g></svg>